<?xml version="1.0" encoding="utf-8"?>
<!-- Generator: Adobe Illustrator 27.5.0, SVG Export Plug-In . SVG Version: 6.00 Build 0)  -->
<svg version="1.1" xmlns="http://www.w3.org/2000/svg" xmlns:xlink="http://www.w3.org/1999/xlink" x="0px" y="0px"
	 viewBox="0 0 500 500" style="enable-background:new 0 0 500 500;" xml:space="preserve">
<g id="Background_Complete">
	<g>
		<rect x="416.779" y="398.494" style="fill:#EBEBEB;" width="33.122" height="0.25"/>
		<rect x="322.527" y="401.208" style="fill:#EBEBEB;" width="8.693" height="0.25"/>
		<rect x="396.586" y="389.208" style="fill:#EBEBEB;" width="19.192" height="0.25"/>
		<rect x="52.459" y="390.888" style="fill:#EBEBEB;" width="43.193" height="0.25"/>
		<rect x="104.556" y="390.888" style="fill:#EBEBEB;" width="6.333" height="0.25"/>
		<rect x="131.471" y="395.111" style="fill:#EBEBEB;" width="93.676" height="0.25"/>
		<path style="fill:#EBEBEB;" d="M237.014,337.8H43.915c-3.147,0-5.708-2.561-5.708-5.708V60.66c0-3.147,2.561-5.708,5.708-5.708
			h193.099c3.146,0,5.707,2.561,5.707,5.708v271.432C242.721,335.239,240.16,337.8,237.014,337.8z M43.915,55.203
			c-3.01,0-5.458,2.448-5.458,5.458v271.432c0,3.01,2.448,5.458,5.458,5.458h193.099c3.009,0,5.457-2.448,5.457-5.458V60.66
			c0-3.009-2.448-5.458-5.457-5.458H43.915z"/>
		<path style="fill:#EBEBEB;" d="M453.31,337.8H260.212c-3.147,0-5.707-2.561-5.707-5.708V60.66c0-3.147,2.561-5.708,5.707-5.708
			H453.31c3.148,0,5.708,2.561,5.708,5.708v271.432C459.019,335.239,456.458,337.8,453.31,337.8z M260.212,55.203
			c-3.009,0-5.457,2.448-5.457,5.458v271.432c0,3.01,2.448,5.458,5.457,5.458H453.31c3.01,0,5.458-2.448,5.458-5.458V60.66
			c0-3.009-2.448-5.458-5.458-5.458H260.212z"/>
		<rect y="382.398" style="fill:#EBEBEB;" width="500" height="0.25"/>
	</g>
	<g>
		<path style="fill:#E0E0E0;" d="M67.257,97.606l-21.883-7.777c0,0,3.907-5.367,5.927-5.927c5.894-1.633,30.787-1.126,30.787-1.126
			L67.257,97.606z"/>
		<path style="fill:#E0E0E0;" d="M85.149,115.497l7.778,21.884c0,0,5.367-3.908,5.927-5.927c1.633-5.894,1.126-30.787,1.126-30.787
			L85.149,115.497z"/>
		<path style="fill:#F0F0F0;" d="M83.662,119.153L63.717,99.209c0,0,24.712-35.051,39.975-44.055
			c7.563-4.462,33.75-9.725,33.75-9.725s-5.263,26.187-9.725,33.749C118.714,94.441,83.662,119.153,83.662,119.153z"/>
		<path style="fill:#E0E0E0;" d="M69.208,113.663c0,0,6.898-17.397,12.027-20.321c1.801-1.027,8.295,0,8.295,0s1.027,6.493,0,8.295
			C86.605,106.764,69.208,113.663,69.208,113.663z"/>
		<path style="fill:#E0E0E0;" d="M120.526,80.365c-4.976,4.976-13.044,4.976-18.021,0c-4.976-4.976-4.976-13.044,0-18.02
			c4.976-4.976,13.044-4.976,18.021,0C125.503,67.321,125.503,75.389,120.526,80.365z"/>
		<circle style="fill:#F5F5F5;" cx="111.516" cy="71.355" r="8.023"/>
	</g>
	<path style="fill:#F0F0F0;" d="M432.731,110.095c-3.755-8.304-13.786-9.123-24.677-7.761c-2.69-4.03-7.275-6.686-12.483-6.686
		c-7.161,0-13.14,5.021-14.633,11.731c-4.685,0.617-8.103,0.427-9.204-1.587c-4.729-8.641,36.098-31.949,36.098-31.949
		s-54.246,24.201-47.671,38.56c2.579,5.633,11.235,5.227,21.336,3.394c2.103,5.745,7.602,9.853,14.076,9.853
		c8.285,0,15.001-6.716,15.001-15.002c0-0.005-0.001-0.009-0.001-0.014c5.052-0.196,9.087,0.624,11.149,3.411
		c8.965,12.119-49.987,37.68-49.987,37.68S441.948,130.484,432.731,110.095z"/>
	<g>
		<path style="fill:#F0F0F0;" d="M125.618,274.914c7.353,12.408,3.256,28.428-9.152,35.782c-12.408,7.354-28.428,3.256-35.782-9.152
			c-7.353-12.408-3.256-28.428,9.152-35.781C102.244,258.408,118.264,262.506,125.618,274.914z"/>
		<path style="fill:#E0E0E0;" d="M122.451,270.628c0.814,0.894,1.57,1.858,2.268,2.883c10.429-5.04,17.739-7.496,18.67-5.925
			c1.525,2.573-14.624,14.963-36.071,27.673c-21.447,12.71-40.069,20.927-41.594,18.353c-0.931-1.571,4.733-6.804,14.161-13.533
			c-0.564-1.104-1.046-2.23-1.44-3.373c-22.636,14.853-37.567,27.352-35.691,30.518c2.427,4.096,32.065-8.982,66.196-29.209
			s59.834-39.946,57.406-44.042C164.481,250.809,146.348,257.904,122.451,270.628z"/>
	</g>
</g>
<g id="Background_Simple" style="display:none;">
	<g style="display:inline;">
		<path style="fill:#407BFF;" d="M118.783,339.11c-44.074-25.861-76.824-59.893-59.454-123.328
			c10.38-37.909,43.38-56.641,107.89-56.641c75.06,0,117.532,84.01,158.227,69.5c66.263-23.627,44.647-128.936,79.149-119.362
			c51.987,14.426,40.115,158.469-32.741,213.306C265.053,402.973,146.541,355.397,118.783,339.11z"/>
		<path style="opacity:0.9;fill:#FFFFFF;" d="M118.783,339.11c-44.074-25.861-76.824-59.893-59.454-123.328
			c10.38-37.909,43.38-56.641,107.89-56.641c75.06,0,117.532,84.01,158.227,69.5c66.263-23.627,44.647-128.936,79.149-119.362
			c51.987,14.426,40.115,158.469-32.741,213.306C265.053,402.973,146.541,355.397,118.783,339.11z"/>
	</g>
</g>
<g id="Shadow">
	<ellipse id="_x3C_Path_x3E__1_" style="fill:#F5F5F5;" cx="279.951" cy="412.391" rx="84.421" ry="11.323"/>
</g>
<g id="Stars">
	<path style="fill:#407BFF;" d="M205.169,69.465c0,0,0.978,2.26,1.548,2.831s2.831,1.548,2.831,1.548s-2.26,0.978-2.831,1.548
		c-0.57,0.57-1.548,2.831-1.548,2.831s-0.978-2.26-1.548-2.831c-0.57-0.57-2.831-1.548-2.831-1.548s2.26-0.978,2.831-1.548
		C204.191,71.725,205.169,69.465,205.169,69.465z M404.634,223.935c-0.57,0.57-2.831,1.548-2.831,1.548s2.26,0.978,2.831,1.548
		c0.57,0.57,1.548,2.831,1.548,2.831s0.978-2.26,1.548-2.831c0.57-0.57,2.831-1.548,2.831-1.548s-2.26-0.978-2.831-1.548
		c-0.57-0.57-1.548-2.831-1.548-2.831S405.204,223.365,404.634,223.935z M428.091,169.744c-0.776,0.775-3.849,2.105-3.849,2.105
		s3.073,1.33,3.849,2.105s2.105,3.849,2.105,3.849s1.329-3.073,2.105-3.849c0.776-0.775,3.849-2.105,3.849-2.105
		s-3.073-1.329-3.849-2.105c-0.775-0.775-2.105-3.849-2.105-3.849S428.867,168.968,428.091,169.744z M330.438,89.857
		c-0.57,0.57-2.831,1.548-2.831,1.548s2.26,0.978,2.831,1.548c0.57,0.57,1.548,2.831,1.548,2.831s0.978-2.26,1.548-2.831
		c0.57-0.57,2.831-1.548,2.831-1.548s-2.26-0.978-2.831-1.548c-0.57-0.57-1.548-2.831-1.548-2.831S331.008,89.286,330.438,89.857z
		 M354.939,355.516c-0.57,0.57-2.831,1.548-2.831,1.548s2.26,0.978,2.831,1.548c0.57,0.57,1.548,2.831,1.548,2.831
		s0.978-2.26,1.548-2.831c0.57-0.57,2.831-1.548,2.831-1.548s-2.26-0.978-2.831-1.548c-0.57-0.57-1.548-2.831-1.548-2.831
		S355.509,354.945,354.939,355.516z M437.519,72.296c-0.57,0.57-2.831,1.548-2.831,1.548s2.26,0.978,2.831,1.548
		c0.57,0.57,1.548,2.831,1.548,2.831s0.978-2.26,1.548-2.831c0.57-0.57,2.831-1.548,2.831-1.548s-2.26-0.978-2.831-1.548
		c-0.57-0.57-1.548-2.831-1.548-2.831S438.089,71.725,437.519,72.296z M72.64,218.158c-0.645,0.645-3.199,1.75-3.199,1.75
		s2.554,1.105,3.199,1.749c0.644,0.645,1.749,3.199,1.749,3.199s1.105-2.554,1.749-3.199c0.645-0.645,3.199-1.749,3.199-1.749
		s-2.554-1.105-3.199-1.75c-0.644-0.645-1.749-3.199-1.749-3.199S73.285,217.514,72.64,218.158z M151.711,313.262
		c-0.645,0.645-3.199,1.75-3.199,1.75s2.554,1.105,3.199,1.749s1.749,3.199,1.749,3.199s1.105-2.554,1.749-3.199
		c0.645-0.645,3.199-1.749,3.199-1.749s-2.554-1.105-3.199-1.75c-0.645-0.645-1.749-3.199-1.749-3.199
		S152.355,312.617,151.711,313.262z M102.495,183.382c-0.467,0.467-2.318,1.268-2.318,1.268s1.851,0.801,2.318,1.268
		c0.467,0.467,1.268,2.318,1.268,2.318s0.801-1.851,1.268-2.318c0.467-0.467,2.318-1.268,2.318-1.268s-1.851-0.801-2.318-1.268
		c-0.467-0.467-1.268-2.318-1.268-2.318S102.962,182.915,102.495,183.382z M141.483,227.488c-0.467,0.467-2.318,1.268-2.318,1.268
		s1.851,0.801,2.318,1.268c0.467,0.467,1.268,2.318,1.268,2.318s0.801-1.851,1.268-2.318c0.467-0.467,2.318-1.268,2.318-1.268
		s-1.851-0.801-2.318-1.268c-0.467-0.467-1.268-2.318-1.268-2.318S141.95,227.021,141.483,227.488z M442.178,242.494
		c-0.467,0.467-2.318,1.268-2.318,1.268s1.851,0.801,2.318,1.268c0.467,0.467,1.268,2.318,1.268,2.318s0.801-1.851,1.268-2.318
		c0.467-0.467,2.318-1.268,2.318-1.268s-1.851-0.801-2.318-1.268c-0.467-0.467-1.268-2.318-1.268-2.318
		S442.646,242.027,442.178,242.494z M41.328,288.068c-0.467,0.467-2.318,1.268-2.318,1.268s1.851,0.801,2.318,1.268
		c0.467,0.467,1.268,2.318,1.268,2.318s0.801-1.851,1.268-2.318c0.467-0.467,2.318-1.268,2.318-1.268s-1.851-0.801-2.318-1.268
		c-0.467-0.467-1.268-2.318-1.268-2.318S41.795,287.601,41.328,288.068z M457.501,268.167c-0.467,0.467-2.318,1.268-2.318,1.268
		s1.851,0.801,2.318,1.268c0.467,0.467,1.268,2.318,1.268,2.318s0.801-1.851,1.268-2.318c0.467-0.467,2.318-1.268,2.318-1.268
		s-1.851-0.801-2.318-1.268c-0.467-0.467-1.268-2.318-1.268-2.318S457.968,267.7,457.501,268.167z M266.974,117.756
		c-0.467,0.467-2.318,1.268-2.318,1.268s1.851,0.801,2.318,1.268s1.268,2.318,1.268,2.318s0.801-1.851,1.268-2.318
		c0.467-0.467,2.318-1.268,2.318-1.268s-1.851-0.801-2.318-1.268c-0.467-0.467-1.268-2.318-1.268-2.318
		S267.441,117.289,266.974,117.756z M343.881,65.65c-0.467,0.467-2.318,1.268-2.318,1.268s1.851,0.801,2.318,1.268
		c0.467,0.467,1.268,2.318,1.268,2.318s0.801-1.851,1.268-2.318c0.467-0.467,2.318-1.268,2.318-1.268s-1.851-0.801-2.318-1.268
		c-0.467-0.467-1.268-2.318-1.268-2.318S344.348,65.183,343.881,65.65z M227.674,93.313c-0.467,0.467-2.318,1.268-2.318,1.268
		s1.851,0.801,2.318,1.268c0.467,0.467,1.268,2.318,1.268,2.318s0.801-1.851,1.268-2.318c0.467-0.467,2.318-1.268,2.318-1.268
		s-1.851-0.801-2.318-1.268c-0.467-0.467-1.268-2.318-1.268-2.318S228.141,92.845,227.674,93.313z M130.346,356.626
		c-0.467,0.467-2.318,1.268-2.318,1.268s1.851,0.801,2.318,1.268s1.268,2.318,1.268,2.318s0.801-1.851,1.268-2.318
		c0.467-0.467,2.318-1.268,2.318-1.268s-1.851-0.801-2.318-1.268c-0.467-0.467-1.268-2.318-1.268-2.318
		S130.813,356.159,130.346,356.626z M183.204,338.931c-0.467,0.467-2.318,1.268-2.318,1.268s1.851,0.801,2.318,1.268
		s1.268,2.318,1.268,2.318s0.801-1.851,1.268-2.318c0.467-0.467,2.318-1.268,2.318-1.268s-1.851-0.801-2.318-1.268
		c-0.467-0.467-1.268-2.318-1.268-2.318S183.671,338.464,183.204,338.931z M384.63,326.708c-0.467,0.467-2.318,1.268-2.318,1.268
		s1.851,0.801,2.318,1.268c0.467,0.467,1.268,2.318,1.268,2.318s0.801-1.851,1.268-2.318c0.467-0.467,2.318-1.268,2.318-1.268
		s-1.851-0.801-2.318-1.268c-0.467-0.467-1.268-2.318-1.268-2.318S385.097,326.241,384.63,326.708z M50.911,162.019
		c-0.57,0.57-2.831,1.548-2.831,1.548s2.26,0.978,2.831,1.548c0.57,0.57,1.548,2.831,1.548,2.831s0.978-2.26,1.548-2.831
		c0.57-0.57,2.831-1.548,2.831-1.548s-2.261-0.978-2.831-1.548c-0.57-0.57-1.548-2.831-1.548-2.831S51.481,161.449,50.911,162.019z"
		/>
	<g>
		<path style="opacity:0.8;fill:#FFFFFF;" d="M205.169,69.465c0,0,0.978,2.26,1.548,2.831s2.831,1.548,2.831,1.548
			s-2.26,0.978-2.831,1.548c-0.57,0.57-1.548,2.831-1.548,2.831s-0.978-2.26-1.548-2.831c-0.57-0.57-2.831-1.548-2.831-1.548
			s2.26-0.978,2.831-1.548C204.191,71.725,205.169,69.465,205.169,69.465z"/>
		<path style="opacity:0.6;fill:#FFFFFF;" d="M404.634,223.935c-0.57,0.57-2.831,1.548-2.831,1.548s2.26,0.978,2.831,1.548
			c0.57,0.57,1.548,2.831,1.548,2.831s0.978-2.26,1.548-2.831c0.57-0.57,2.831-1.548,2.831-1.548s-2.26-0.978-2.831-1.548
			c-0.57-0.57-1.548-2.831-1.548-2.831S405.204,223.365,404.634,223.935z"/>
		<path style="opacity:0.4;fill:#FFFFFF;" d="M428.091,169.744c-0.776,0.775-3.849,2.105-3.849,2.105s3.073,1.33,3.849,2.105
			s2.105,3.849,2.105,3.849s1.329-3.073,2.105-3.849c0.776-0.775,3.849-2.105,3.849-2.105s-3.073-1.329-3.849-2.105
			c-0.775-0.775-2.105-3.849-2.105-3.849S428.867,168.968,428.091,169.744z"/>
		<path style="opacity:0.6;fill:#FFFFFF;" d="M330.438,89.857c-0.57,0.57-2.831,1.548-2.831,1.548s2.26,0.978,2.831,1.548
			c0.57,0.57,1.548,2.831,1.548,2.831s0.978-2.26,1.548-2.831c0.57-0.57,2.831-1.548,2.831-1.548s-2.26-0.978-2.831-1.548
			c-0.57-0.57-1.548-2.831-1.548-2.831S331.008,89.286,330.438,89.857z"/>
		<path style="opacity:0.4;fill:#FFFFFF;" d="M354.939,355.516c-0.57,0.57-2.831,1.548-2.831,1.548s2.26,0.978,2.831,1.548
			c0.57,0.57,1.548,2.831,1.548,2.831s0.978-2.26,1.548-2.831c0.57-0.57,2.831-1.548,2.831-1.548s-2.26-0.978-2.831-1.548
			c-0.57-0.57-1.548-2.831-1.548-2.831S355.509,354.945,354.939,355.516z"/>
		<path style="opacity:0.8;fill:#FFFFFF;" d="M437.519,72.296c-0.57,0.57-2.831,1.548-2.831,1.548s2.26,0.978,2.831,1.548
			c0.57,0.57,1.548,2.831,1.548,2.831s0.978-2.26,1.548-2.831c0.57-0.57,2.831-1.548,2.831-1.548s-2.26-0.978-2.831-1.548
			c-0.57-0.57-1.548-2.831-1.548-2.831S438.089,71.725,437.519,72.296z"/>
		<path style="opacity:0.4;fill:#FFFFFF;" d="M72.64,218.158c-0.645,0.645-3.199,1.75-3.199,1.75s2.554,1.105,3.199,1.749
			c0.644,0.645,1.749,3.199,1.749,3.199s1.105-2.554,1.749-3.199c0.645-0.645,3.199-1.749,3.199-1.749s-2.554-1.105-3.199-1.75
			c-0.644-0.645-1.749-3.199-1.749-3.199S73.285,217.514,72.64,218.158z"/>
		<path style="opacity:0.4;fill:#FFFFFF;" d="M151.711,313.262c-0.645,0.645-3.199,1.75-3.199,1.75s2.554,1.105,3.199,1.749
			s1.749,3.199,1.749,3.199s1.105-2.554,1.749-3.199c0.645-0.645,3.199-1.749,3.199-1.749s-2.554-1.105-3.199-1.75
			c-0.645-0.645-1.749-3.199-1.749-3.199S152.355,312.617,151.711,313.262z"/>
		<path style="opacity:0.6;fill:#FFFFFF;" d="M102.495,183.382c-0.467,0.467-2.318,1.268-2.318,1.268s1.851,0.801,2.318,1.268
			c0.467,0.467,1.268,2.318,1.268,2.318s0.801-1.851,1.268-2.318c0.467-0.467,2.318-1.268,2.318-1.268s-1.851-0.801-2.318-1.268
			c-0.467-0.467-1.268-2.318-1.268-2.318S102.962,182.915,102.495,183.382z"/>
		<path style="opacity:0.6;fill:#FFFFFF;" d="M141.483,227.488c-0.467,0.467-2.318,1.268-2.318,1.268s1.851,0.801,2.318,1.268
			c0.467,0.467,1.268,2.318,1.268,2.318s0.801-1.851,1.268-2.318c0.467-0.467,2.318-1.268,2.318-1.268s-1.851-0.801-2.318-1.268
			c-0.467-0.467-1.268-2.318-1.268-2.318S141.95,227.021,141.483,227.488z"/>
		<path style="opacity:0.8;fill:#FFFFFF;" d="M442.178,242.494c-0.467,0.467-2.318,1.268-2.318,1.268s1.851,0.801,2.318,1.268
			c0.467,0.467,1.268,2.318,1.268,2.318s0.801-1.851,1.268-2.318c0.467-0.467,2.318-1.268,2.318-1.268s-1.851-0.801-2.318-1.268
			c-0.467-0.467-1.268-2.318-1.268-2.318S442.646,242.027,442.178,242.494z"/>
		<path style="opacity:0.8;fill:#FFFFFF;" d="M41.328,288.068c-0.467,0.467-2.318,1.268-2.318,1.268s1.851,0.801,2.318,1.268
			c0.467,0.467,1.268,2.318,1.268,2.318s0.801-1.851,1.268-2.318c0.467-0.467,2.318-1.268,2.318-1.268s-1.851-0.801-2.318-1.268
			c-0.467-0.467-1.268-2.318-1.268-2.318S41.795,287.601,41.328,288.068z"/>
		<path style="opacity:0.6;fill:#FFFFFF;" d="M457.501,268.167c-0.467,0.467-2.318,1.268-2.318,1.268s1.851,0.801,2.318,1.268
			c0.467,0.467,1.268,2.318,1.268,2.318s0.801-1.851,1.268-2.318c0.467-0.467,2.318-1.268,2.318-1.268s-1.851-0.801-2.318-1.268
			c-0.467-0.467-1.268-2.318-1.268-2.318S457.968,267.7,457.501,268.167z"/>
		<path style="opacity:0.4;fill:#FFFFFF;" d="M266.974,117.756c-0.467,0.467-2.318,1.268-2.318,1.268s1.851,0.801,2.318,1.268
			s1.268,2.318,1.268,2.318s0.801-1.851,1.268-2.318c0.467-0.467,2.318-1.268,2.318-1.268s-1.851-0.801-2.318-1.268
			c-0.467-0.467-1.268-2.318-1.268-2.318S267.441,117.289,266.974,117.756z"/>
		<path style="opacity:0.4;fill:#FFFFFF;" d="M343.881,65.65c-0.467,0.467-2.318,1.268-2.318,1.268s1.851,0.801,2.318,1.268
			c0.467,0.467,1.268,2.318,1.268,2.318s0.801-1.851,1.268-2.318c0.467-0.467,2.318-1.268,2.318-1.268s-1.851-0.801-2.318-1.268
			c-0.467-0.467-1.268-2.318-1.268-2.318S344.348,65.183,343.881,65.65z"/>
		<path style="opacity:0.6;fill:#FFFFFF;" d="M227.674,93.313c-0.467,0.467-2.318,1.268-2.318,1.268s1.851,0.801,2.318,1.268
			c0.467,0.467,1.268,2.318,1.268,2.318s0.801-1.851,1.268-2.318c0.467-0.467,2.318-1.268,2.318-1.268s-1.851-0.801-2.318-1.268
			c-0.467-0.467-1.268-2.318-1.268-2.318S228.141,92.845,227.674,93.313z"/>
		<path style="opacity:0.8;fill:#FFFFFF;" d="M130.346,356.626c-0.467,0.467-2.318,1.268-2.318,1.268s1.851,0.801,2.318,1.268
			s1.268,2.318,1.268,2.318s0.801-1.851,1.268-2.318c0.467-0.467,2.318-1.268,2.318-1.268s-1.851-0.801-2.318-1.268
			c-0.467-0.467-1.268-2.318-1.268-2.318S130.813,356.159,130.346,356.626z"/>
		<path style="opacity:0.6;fill:#FFFFFF;" d="M183.204,338.931c-0.467,0.467-2.318,1.268-2.318,1.268s1.851,0.801,2.318,1.268
			s1.268,2.318,1.268,2.318s0.801-1.851,1.268-2.318c0.467-0.467,2.318-1.268,2.318-1.268s-1.851-0.801-2.318-1.268
			c-0.467-0.467-1.268-2.318-1.268-2.318S183.671,338.464,183.204,338.931z"/>
		<path style="opacity:0.6;fill:#FFFFFF;" d="M384.63,326.708c-0.467,0.467-2.318,1.268-2.318,1.268s1.851,0.801,2.318,1.268
			c0.467,0.467,1.268,2.318,1.268,2.318s0.801-1.851,1.268-2.318c0.467-0.467,2.318-1.268,2.318-1.268s-1.851-0.801-2.318-1.268
			c-0.467-0.467-1.268-2.318-1.268-2.318S385.097,326.241,384.63,326.708z"/>
		<path style="opacity:0.6;fill:#FFFFFF;" d="M50.911,162.019c-0.57,0.57-2.831,1.548-2.831,1.548s2.26,0.978,2.831,1.548
			c0.57,0.57,1.548,2.831,1.548,2.831s0.978-2.26,1.548-2.831c0.57-0.57,2.831-1.548,2.831-1.548s-2.261-0.978-2.831-1.548
			c-0.57-0.57-1.548-2.831-1.548-2.831S51.481,161.449,50.911,162.019z"/>
	</g>
</g>
<g id="Character">
	<g>
		<g>
			<g>
				<g>
					<polygon style="fill:#407BFF;" points="333.716,351.823 321.845,331.838 333.218,311.87 339.403,341.839 					"/>
					<polygon style="fill:#407BFF;" points="323.234,306.183 311.861,326.151 288.615,326.135 294.302,316.151 					"/>
				</g>
				<g>
					<path style="fill:#263238;" d="M306.786,346.668c-2.752-1.567-5.151-3.388-7.098-5.297c5.698-5.551,11.196-8.898,14.206-7.183
						c3.01,1.715,2.936,8.151,1.068,15.883C312.328,349.37,309.538,348.235,306.786,346.668z"/>
					<path style="fill:#263238;" d="M328.011,260.571c-15.812,27.761-27.071,69.392-15.473,75.998
						c11.599,6.606,41.663-24.314,57.475-52.074c15.812-27.761-0.215-48.456-0.215-48.456S343.823,232.81,328.011,260.571z"/>
					<path style="opacity:0.7;fill:#FFFFFF;" d="M328.011,260.571c-15.812,27.761-27.071,69.392-15.473,75.998
						c11.599,6.606,41.663-24.314,57.475-52.074c15.812-27.761-0.215-48.456-0.215-48.456S343.823,232.81,328.011,260.571z"/>
					<path style="fill:#407BFF;" d="M354.699,262.548c-7.175-4.087-13.157-9.015-17.469-14.045
						c15.028-14.63,32.568-12.465,32.568-12.465s10.809,13.982,5.891,34.371C369.164,269.267,361.874,266.635,354.699,262.548z"/>
					<g style="opacity:0.3;">
						<path style="fill:#FFFFFF;" d="M361.383,272.146c1.319-2.604,2.458-5.218,3.425-7.835l5.137,2.104
							c-1.027,2.755-2.228,5.505-3.614,8.238c-6.372,12.573-15.039,26.123-24.402,38.154l-4.377-3.407
							C346.703,297.642,355.166,284.412,361.383,272.146z"/>
						<path style="fill:#FFFFFF;" d="M366.63,258.629c0.723-2.665,1.262-5.326,1.613-7.973l5.175,2.948
							c-0.441,2.615-1.048,5.236-1.818,7.856L366.63,258.629z"/>
					</g>
					<g>
						<path style="fill:#407BFF;" d="M314.67,351.223c-5.952-1.71-11.316-4.765-15.823-9.013c-1.113-1.049,0.569-2.73,1.684-1.679
							c4.202,3.96,9.176,6.793,14.725,8.387C316.725,349.341,316.142,351.646,314.67,351.223L314.67,351.223z"/>
					</g>
				</g>
			</g>
			<g>
				<path style="fill:#407BFF;" d="M271.978,228.809c0,0-25.481,0.742-34.19-25.97c0,0,0.008-18.916-11.84-13.392
					c-12.735,5.937-13.045,20.388-6.212,27.912c0,0,2.499,24.305,40.71,34.244C260.447,251.603,281.978,240.491,271.978,228.809z"/>
				<path style="opacity:0.7;fill:#FFFFFF;" d="M271.978,228.809c0,0-25.481,0.742-34.19-25.97c0,0,0.008-18.916-11.84-13.392
					c-12.735,5.937-13.045,20.388-6.212,27.912c0,0,2.499,24.305,40.71,34.244C260.447,251.603,281.978,240.491,271.978,228.809z"/>
				<path style="fill:#407BFF;" d="M225.949,189.447c11.848-5.524,11.84,13.392,11.84,13.392s-3.971,11.75-18.052,14.52
					C212.903,209.835,213.214,195.385,225.949,189.447z"/>
				<path style="opacity:0.3;fill:#FFFFFF;" d="M225.949,189.447c11.848-5.524,11.84,13.392,11.84,13.392s-3.971,11.75-18.052,14.52
					C212.903,209.835,213.214,195.385,225.949,189.447z"/>
				<path style="fill:#407BFF;" d="M228.942,234.556c4.15-1.796,12.651-6.615,17.089-17.209c3.834,4.178,8.174,6.835,12.193,8.524
					c0.435,3.084,0.11,10.579-9.022,22.027C239.75,244.034,233.318,239.216,228.942,234.556z"/>
				<path style="opacity:0.4;fill:#FFFFFF;" d="M228.942,234.556c4.15-1.796,12.651-6.615,17.089-17.209
					c3.834,4.178,8.174,6.835,12.193,8.524c0.435,3.084,0.11,10.579-9.022,22.027C239.75,244.034,233.318,239.216,228.942,234.556z"
					/>
				<path style="opacity:0.2;" d="M270.274,228.756c-0.774,4.187-2.446,9.308-6.031,13.496c-4.36,5.094-9.9,6.156-13.744,6.164
					c3.013,1.17,6.318,2.244,9.947,3.188c0,0,21.531-11.112,11.531-22.795C271.978,228.809,271.357,228.827,270.274,228.756z"/>
				<g>
					<path style="fill:#407BFF;" d="M259.741,250.396c6.912-3.598,18.07-12.2,11.249-20.599c-1.125-1.385,0.842-3.374,1.977-1.977
						c8.217,10.118-2.957,20.379-11.814,24.99C259.558,253.64,258.143,251.228,259.741,250.396L259.741,250.396z"/>
				</g>
				<g>
					<path style="fill:#407BFF;" d="M228.236,233.349c7.522-3.32,13.29-9.171,16.588-16.707c0.719-1.644,3.129-0.223,2.414,1.411
						c-3.456,7.899-9.694,14.225-17.59,17.71C228.016,236.482,226.592,234.074,228.236,233.349L228.236,233.349z"/>
				</g>
			</g>
			<g>
				<g>
					<path style="fill:#407BFF;" d="M255.213,261.335c0,0-39.915-25.44-45.208,7.751c0,0-18.222-8.009-24.434,2.266
						c-6.212,10.275,33.915,34.419,40.973,21.844c8.139-14.504,31.798-3.929,31.798-3.929L255.213,261.335z"/>
					<path style="opacity:0.7;fill:#FFFFFF;" d="M255.213,261.335c0,0-39.915-25.44-45.208,7.751c0,0-18.222-8.009-24.434,2.266
						c-6.212,10.275,33.915,34.419,40.973,21.844c8.139-14.504,31.798-3.929,31.798-3.929L255.213,261.335z"/>
				</g>
				<path style="fill:#263238;" d="M185.571,271.353c2.585-4.276,7.251-5.381,11.817-5.219c0.798,1.283,1.745,3.855,0.814,8.245
					c0,0,14.081,5.338,21.742,15.508l7.595,1.768c-0.352,0.481-0.686,0.991-0.995,1.542
					C219.486,305.772,179.359,281.628,185.571,271.353z"/>
				<path style="fill:#407BFF;" d="M187.3,275.545c-1.003,1.605,4.983,7.157,13.372,12.4c8.388,5.243,16.002,8.192,17.005,6.586
					c1.003-1.605-4.983-7.157-13.372-12.4C195.917,276.888,188.304,273.94,187.3,275.545z"/>
				<g style="opacity:0.3;">
					<path style="fill:#FFFFFF;" d="M200.746,280.017c1.159,0.654,2.35,1.359,3.559,2.115c0.038,0.024,0.075,0.048,0.113,0.072
						l-8.646,2.454c-1.114-0.804-2.147-1.594-3.082-2.354L200.746,280.017z"/>
					<path style="fill:#FFFFFF;" d="M208.116,284.646c1.133,0.79,2.194,1.571,3.169,2.33l-8.315,2.36
						c-0.756-0.443-1.524-0.907-2.298-1.391c-0.436-0.273-0.865-0.547-1.288-0.82L208.116,284.646z"/>
					<path style="fill:#FFFFFF;" d="M191.888,275.852c1.329,0.454,2.884,1.107,4.588,1.927l-6.732,1.911
						c-1.012-1-1.755-1.889-2.17-2.613L191.888,275.852z"/>
					<path style="fill:#FFFFFF;" d="M211.313,293.555c-1.308-0.534-2.764-1.21-4.314-2.004l7.282-2.067
						c1.021,0.93,1.85,1.788,2.444,2.535L211.313,293.555z"/>
				</g>
			</g>
			<g>
				<path style="fill:#407BFF;" d="M337.331,240.503c0,0-18.129,109.754-66.425,65.765c-5.611-5.11-16.98-16.898-25.561-25.92
					c-4.514-4.746-3.656-12.377,1.759-16.064c7.269-4.949,17.316-15.234,29.289-36.439L337.331,240.503z"/>
				<path style="opacity:0.7;fill:#FFFFFF;" d="M337.331,240.503c0,0-18.129,109.754-66.425,65.765
					c-5.611-5.11-16.98-16.898-25.561-25.92c-4.514-4.746-3.656-12.377,1.759-16.064c7.269-4.949,17.316-15.234,29.289-36.439
					L337.331,240.503z"/>
				<path style="opacity:0.2;" d="M262.119,287.145c-2.157-2.818-7.008-8.557-8.143-4.808c-0.648,2.141-1.306,3.86-1.84,5.115
					c7.091,7.372,14.555,14.978,18.77,18.817c0.3,0.273,0.593,0.513,0.89,0.774l19.872-2.791l5.842-4.555
					C297.509,299.697,282.335,282.511,262.119,287.145z"/>
			</g>
			<path style="opacity:0.3;" d="M281.695,238.368c8.195,19.153,36.199,17.313,36.199,17.313s9.116,4.355-3.224,33.801
				c-12.258,29.251-40.741,19.198-41.118,19.063c46.313,37.685,63.779-68.042,63.779-68.042l-50.233-10.434
				C282.341,231.79,280.012,234.433,281.695,238.368z"/>
			<path style="fill:#263238;" d="M269.641,264.098c-3.704-1.886-4.811-7.135-2.474-11.724c2.337-4.589,7.233-6.78,10.937-4.894
				l2.176,1.108c3.703,1.886,4.811,7.135,2.474,11.724c-2.337,4.589-7.233,6.78-10.937,4.894L269.641,264.098z"/>
			<path style="opacity:0.5;fill:#FFFFFF;" d="M269.641,264.098c-3.704-1.886-4.811-7.135-2.474-11.724
				c2.337-4.589,7.233-6.78,10.937-4.894l2.176,1.108c3.703,1.886,4.811,7.135,2.474,11.724c-2.337,4.589-7.233,6.78-10.937,4.894
				L269.641,264.098z"/>
			<path style="fill:#263238;" d="M288.539,256.184l2.128,1.284l3.328,2.007l2.128,1.284c1.651,0.996,2.183,3.143,1.186,4.794
				l-3.291,5.456c-0.996,1.651-3.143,2.183-4.794,1.186l-2.128-1.284l-3.328-2.007l-2.128-1.284
				c-1.651-0.996-2.183-3.143-1.186-4.794l3.291-5.455C284.741,255.719,286.888,255.188,288.539,256.184z"/>
			<path style="opacity:0.6;fill:#FFFFFF;" d="M288.539,256.184l2.128,1.284l3.328,2.007l2.128,1.284
				c1.651,0.996,2.183,3.143,1.186,4.794l-3.291,5.456c-0.996,1.651-3.143,2.183-4.794,1.186l-2.128-1.284l-3.328-2.007
				l-2.128-1.284c-1.651-0.996-2.183-3.143-1.186-4.794l3.291-5.455C284.741,255.719,286.888,255.188,288.539,256.184z"/>
			<path style="opacity:0.3;fill:#FFFFFF;" d="M283.464,268.72l1.809,1.091c2.659,1.604,6.114,0.749,7.717-1.91l1.091-1.809
				c1.604-2.659,0.749-6.114-1.91-7.717l-1.809-1.091c-2.658-1.604-6.114-0.749-7.717,1.91l-1.091,1.809
				C279.95,263.661,280.805,267.116,283.464,268.72z"/>
			<path style="fill:#407BFF;" d="M284.825,261.743l5.718,3.449c0.722,0.436,1.661,0.203,2.096-0.519l0,0
				c0.436-0.722,0.203-1.661-0.519-2.096l-5.718-3.449c-0.722-0.436-1.661-0.203-2.096,0.519l0,0
				C283.871,260.368,284.103,261.307,284.825,261.743z"/>
			<path style="opacity:0.3;fill:#FFFFFF;" d="M284.825,261.743l5.718,3.449c0.722,0.436,1.661,0.203,2.096-0.519l0,0
				c0.436-0.722,0.203-1.661-0.519-2.096l-5.718-3.449c-0.722-0.436-1.661-0.203-2.096,0.519l0,0
				C283.871,260.368,284.103,261.307,284.825,261.743z"/>
			<path style="fill:#407BFF;" d="M233.853,286.849c-3.473-19.914-14.639-25.455-20.766-26.993
				c5.512-9.37,16.288-8.845,25.564-6.053c14.116,12.905,8.074,27.495,5.749,31.877
				C240.869,285.364,237.147,285.565,233.853,286.849z"/>
			<path style="opacity:0.4;fill:#FFFFFF;" d="M233.853,286.849c-3.473-19.914-14.639-25.455-20.766-26.993
				c5.512-9.37,16.288-8.845,25.564-6.053c14.116,12.905,8.074,27.495,5.749,31.877
				C240.869,285.364,237.147,285.565,233.853,286.849z"/>
			<g>
				<path style="fill:#407BFF;" d="M239.639,252.815c9.553,9.01,12.079,21.879,5.968,33.571c-0.834,1.595-3.247,0.183-2.414-1.411
					c5.531-10.582,3.09-22.052-5.531-30.183C236.351,253.555,238.33,251.581,239.639,252.815L239.639,252.815z"/>
			</g>
			<g>
				<path style="fill:#407BFF;" d="M291.814,295.042c-9.862-4.544-33.501-12.902-42.979,6.257
					c-7.214,14.582,1.997,25.65,1.997,25.65s-21.824,9.044-14.732,22.19c7.092,13.147,41.673-3.835,39.549-15.853
					c-2.125-12.018-0.478-13.732,3.151-14.795C285.234,316.607,332.691,313.876,291.814,295.042z"/>
				<path style="opacity:0.7;fill:#FFFFFF;" d="M291.814,295.042c-9.862-4.544-33.501-12.902-42.979,6.257
					c-7.214,14.582,1.997,25.65,1.997,25.65s-21.824,9.044-14.732,22.19c7.092,13.147,41.673-3.835,39.549-15.853
					c-2.125-12.018-0.478-13.732,3.151-14.795C285.234,316.607,332.691,313.876,291.814,295.042z"/>
				<path style="fill:#407BFF;" d="M246.497,308.197c0.411-2.182,1.147-4.491,2.338-6.898c4.522-9.14,12.267-12.015,20.202-12.031
					c13.876,3.346,15.322,28.215,15.322,28.216c-2.529,0.396-4.549,0.713-5.559,1.009c-1.732,0.507-3.011,1.166-3.646,3.02
					C254.957,320.499,248.516,313.267,246.497,308.197z"/>
				<path style="opacity:0.4;fill:#FFFFFF;" d="M246.497,308.197c0.411-2.182,1.147-4.491,2.338-6.898
					c4.522-9.14,12.267-12.015,20.202-12.031c13.876,3.346,15.322,28.215,15.322,28.216c-2.529,0.396-4.549,0.713-5.559,1.009
					c-1.732,0.507-3.011,1.166-3.646,3.02C254.957,320.499,248.516,313.267,246.497,308.197z"/>
				<g>
					<path style="fill:#407BFF;" d="M269.408,287.92c11.876,3.169,15.695,18.84,16.348,29.564c0.109,1.797-2.686,1.79-2.795,0
						c-0.574-9.421-3.807-24.069-14.296-26.868C266.929,290.152,267.665,287.455,269.408,287.92L269.408,287.92z"/>
				</g>
				<path style="fill:#263238;" d="M236.978,337.235c7.102-1.082,11.748,13.139,11.748,13.139
					c17.952-4.26,24.497-13.655,26.709-18.344c0.067,0.407,0.137,0.823,0.214,1.256c2.125,12.018-32.456,29-39.549,15.853
					C233.662,344.619,234.642,340.584,236.978,337.235z"/>
			</g>
			<g>
				<g>
					<path style="fill:#407BFF;" d="M310.486,253.32c10.5,0,20.806-2.501,30.063-7.265c2.113-1.087,2.838-3.757,1.612-5.792
						l-0.545-0.905c-1.122-1.862-3.492-2.531-5.426-1.54c-7.916,4.056-16.726,6.184-25.703,6.184
						c-14.285,0-28.112-5.495-38.508-15.193c-1.593-1.486-4.058-1.501-5.651-0.014l-0.768,0.716c-1.747,1.63-1.76,4.406-0.015,6.039
						C277.666,246.892,293.808,253.32,310.486,253.32z"/>
				</g>
				<g style="opacity:0.3;">
					<path d="M310.486,253.32c10.5,0,20.806-2.501,30.063-7.265c2.113-1.087,2.838-3.757,1.612-5.792l-0.545-0.905
						c-1.122-1.862-3.492-2.531-5.426-1.54c-7.916,4.056-16.726,6.184-25.703,6.184c-14.285,0-28.112-5.495-38.508-15.193
						c-1.593-1.486-4.058-1.501-5.651-0.014l-0.768,0.716c-1.747,1.63-1.76,4.406-0.015,6.039
						C277.666,246.892,293.808,253.32,310.486,253.32z"/>
				</g>
			</g>
			<g>
				<g>
					<g>
						
							<ellipse transform="matrix(0.7071 -0.7071 0.7071 0.7071 -41.7126 274.4932)" style="fill:#407BFF;" cx="310.486" cy="187.598" rx="61.063" ry="61.063"/>
						
							<ellipse transform="matrix(0.7071 -0.7071 0.7071 0.7071 -41.7126 274.4932)" style="opacity:0.7;fill:#FFFFFF;" cx="310.486" cy="187.598" rx="61.063" ry="61.063"/>
					</g>
					<path style="fill:#407BFF;" d="M268.575,143.212c9.812-7.949,22.305-12.719,35.916-12.719
						c31.538,0,57.105,25.567,57.105,57.105s-25.567,57.105-57.105,57.105c-13.612,0-26.105-4.77-35.916-12.719
						c-11.786-11.132-19.152-26.894-19.152-44.386C249.423,170.107,256.789,154.345,268.575,143.212z"/>
					<circle style="fill:#263238;" cx="304.491" cy="187.598" r="53.509"/>
					<path style="opacity:0.5;fill:#FFFFFF;" d="M330.429,171.361c0.779,4.559,4.601,7.709,8.538,7.037
						c3.937-0.672,6.498-4.913,5.719-9.472c-0.779-4.559-4.601-7.709-8.538-7.037C332.211,162.561,329.65,166.802,330.429,171.361z"
						/>
					<path style="opacity:0.5;fill:#FFFFFF;" d="M339.846,188.204c-0.251,2.227,1.104,4.208,3.027,4.425
						c1.923,0.217,3.686-1.412,3.937-3.639c0.251-2.227-1.104-4.208-3.027-4.425C341.86,184.348,340.097,185.977,339.846,188.204z"
						/>
					<g style="opacity:0.5;">
						<path style="fill:#FFFFFF;" d="M265.942,188.125c-0.524,1.691-3.035,1.34-3.039-0.43c0-0.032,0-0.064,0-0.096
							c0-16.82,9.989-31.299,24.355-37.85c0.83-0.378,1.807,0.023,2.121,0.879l1.488,4.064c0.254,0.694-0.02,1.462-0.645,1.856
							C278.759,163.761,270.03,174.921,265.942,188.125z"/>
						<path style="fill:#FFFFFF;" d="M309.787,147.507L309.787,147.507c0.069,0.733-0.427,1.391-1.147,1.546
							c-3.428,0.735-6.742,1.775-9.912,3.092c-0.722,0.3-1.55-0.01-1.877-0.72l-1.219-2.642c-0.394-0.854,0.12-1.852,1.044-2.029
							c2.532-0.485,5.143-0.744,7.816-0.744c1.355,0,2.695,0.068,4.016,0.197C309.189,146.273,309.723,146.825,309.787,147.507z"/>
					</g>
					<path style="opacity:0.6;" d="M270.59,208.53c11.328,9.177,25.75,14.684,41.465,14.684c15.869,0,30.427-5.608,41.804-14.949
						c-8.085,19.29-27.142,32.842-49.367,32.842c-29.552,0-53.509-23.957-53.509-53.509c0-3.081,0.275-6.096,0.775-9.035
						C255.419,190.126,261.981,200.398,270.59,208.53z"/>
				</g>
				<g>
					<path style="fill:#263238;" d="M354.999,220.576c-7.089-2.221-10.292-12.141-7.155-22.158
						c3.138-10.018,11.428-16.338,18.517-14.118l3.991,1.25c7.089,2.221,10.291,12.141,7.153,22.159
						c-3.137,10.017-11.427,16.338-18.516,14.117L354.999,220.576z"/>
					<path style="opacity:0.3;fill:#FFFFFF;" d="M354.999,220.576c-7.089-2.221-10.292-12.141-7.155-22.158
						c3.138-10.018,11.428-16.338,18.517-14.118l3.991,1.25c7.089,2.221,10.291,12.141,7.153,22.159
						c-3.137,10.017-11.427,16.338-18.516,14.117L354.999,220.576z"/>
					<path style="opacity:0.3;fill:#FFFFFF;" d="M351.836,199.669c-3.138,10.017,0.065,19.938,7.154,22.158
						c7.089,2.22,15.379-4.101,18.516-14.118c3.138-10.018-0.065-19.938-7.154-22.158
						C363.263,183.331,354.973,189.651,351.836,199.669z"/>
					<g>
						<path style="fill:#263238;" d="M310.991,241.054c16.878,0,28.973-5.23,36.793-10.381
							c11.436-7.532,16.355-16.352,16.559-16.724l-3.336-1.833c-0.047,0.084-4.766,8.482-15.483,15.487
							c-14.16,9.255-32.411,11.908-52.78,7.674l-0.775,3.726C298.882,240.442,305.218,241.054,310.991,241.054z"/>
					</g>
					<g style="opacity:0.5;">
						<path style="fill:#FFFFFF;" d="M310.991,241.054c16.878,0,28.973-5.23,36.793-10.381
							c11.436-7.532,16.355-16.352,16.559-16.724l-3.336-1.833c-0.047,0.084-4.766,8.482-15.483,15.487
							c-14.16,9.255-32.411,11.908-52.78,7.674l-0.775,3.726C298.882,240.442,305.218,241.054,310.991,241.054z"/>
					</g>
					<g>
						<path style="fill:#407BFF;" d="M356.516,201.134c-1.994,6.365,0.042,12.668,4.546,14.079c4.504,1.41,9.771-2.605,11.765-8.97
							c1.994-6.365-0.042-12.668-4.545-14.079C363.776,190.754,358.509,194.769,356.516,201.134z"/>
						<path style="fill:#407BFF;" d="M358.032,201.824c-1.994,6.365,0.042,12.669,4.545,14.079c4.504,1.411,9.772-2.605,11.765-8.97
							c1.994-6.365-0.041-12.669-4.545-14.079C365.293,191.444,360.025,195.46,358.032,201.824z"/>
						<path style="opacity:0.5;fill:#FFFFFF;" d="M358.032,201.824c-1.994,6.365,0.042,12.669,4.545,14.079
							c4.504,1.411,9.772-2.605,11.765-8.97c1.994-6.365-0.041-12.669-4.545-14.079C365.293,191.444,360.025,195.46,358.032,201.824
							z"/>
					</g>
					<g>
						<path style="fill:#407BFF;" d="M292.325,241.306l-18.258-5.046c-2.293-0.634-3.638-3.006-3.004-5.299l0.031-0.111
							c0.634-2.293,3.006-3.638,5.299-3.005l18.259,5.046c2.293,0.634,3.638,3.006,3.004,5.299l-0.03,0.111
							C296.99,240.594,294.618,241.939,292.325,241.306z"/>
						<path style="opacity:0.2;" d="M292.325,241.306l-18.258-5.046c-2.293-0.634-3.638-3.006-3.004-5.299l0.031-0.111
							c0.634-2.293,3.006-3.638,5.299-3.005l18.259,5.046c2.293,0.634,3.638,3.006,3.004,5.299l-0.03,0.111
							C296.99,240.594,294.618,241.939,292.325,241.306z"/>
						<path style="fill:#407BFF;" d="M289.662,240.57l-18.259-5.046c-2.293-0.633-3.638-3.006-3.005-5.299l0.031-0.111
							c0.634-2.293,3.006-3.638,5.299-3.004l18.258,5.045c2.293,0.634,3.638,3.006,3.004,5.299l-0.031,0.111
							C294.327,239.858,291.955,241.203,289.662,240.57z"/>
						<path style="opacity:0.3;fill:#FFFFFF;" d="M289.662,240.57l-18.259-5.046c-2.293-0.633-3.638-3.006-3.005-5.299l0.031-0.111
							c0.634-2.293,3.006-3.638,5.299-3.004l18.258,5.045c2.293,0.634,3.638,3.006,3.004,5.299l-0.031,0.111
							C294.327,239.858,291.955,241.203,289.662,240.57z"/>
					</g>
				</g>
			</g>
			<path style="opacity:0.5;fill:#FFFFFF;" d="M268.189,252.895c-1.98,3.889-1.042,8.337,2.097,9.935
				c3.138,1.598,7.288-0.259,9.269-4.147c1.98-3.889,1.042-8.337-2.097-9.936C274.32,247.149,270.17,249.006,268.189,252.895z"/>
			<path style="fill:#407BFF;" d="M270.205,253.921c-1.278,2.51-0.672,5.381,1.353,6.412c2.025,1.031,4.704-0.167,5.982-2.677
				c1.278-2.51,0.672-5.381-1.353-6.412C274.161,250.213,271.483,251.411,270.205,253.921z"/>
			<path style="opacity:0.4;" d="M270.205,253.921c-1.278,2.51-0.672,5.381,1.353,6.412c2.025,1.031,4.704-0.167,5.982-2.677
				c1.278-2.51,0.672-5.381-1.353-6.412C274.161,250.213,271.483,251.411,270.205,253.921z"/>
			<path style="fill:#407BFF;" d="M276.826,251.672c1.498,1.262,1.845,3.763,0.714,5.984c-1.131,2.221-3.358,3.412-5.26,2.942
				c-1.498-1.262-1.845-3.763-0.714-5.984C272.698,252.393,274.924,251.203,276.826,251.672z"/>
			<g>
				<g>
					<g>
						<path style="fill:#407BFF;" d="M225.299,359.55L225.299,359.55c0.16-0.19,0.508-0.152,0.789,0.052
							c12.498,9.073,32.584,10.898,46.701,1.427c4.05-2.717,7.374-6.743,11.75-9.172c5.325-2.956,16.536-8.222,21.88-3.696
							c7.999,6.775-5.624,20.365-11.235,23.303c-5.906,3.093-15.234,7.166-27.749,5.9c-13.682-1.384-27.528-4.703-41.942-17.043
							C225.224,360.09,225.139,359.74,225.299,359.55z"/>
						<path style="opacity:0.7;fill:#FFFFFF;" d="M225.299,359.55L225.299,359.55c0.16-0.19,0.508-0.152,0.789,0.052
							c12.498,9.073,32.584,10.898,46.701,1.427c4.05-2.717,7.374-6.743,11.75-9.172c5.325-2.956,16.536-8.222,21.88-3.696
							c7.999,6.775-5.624,20.365-11.235,23.303c-5.906,3.093-15.234,7.166-27.749,5.9c-13.682-1.384-27.528-4.703-41.942-17.043
							C225.224,360.09,225.139,359.74,225.299,359.55z"/>
						<path style="fill:#407BFF;" d="M302.625,353.315c1.157,0.243-9.745,14.882-16.044,16.058
							c-5.586,1.043-14.511,0.077-5.527-3.848c0,0-6.905,0.87,1.996-6.501C288.076,367.494,302.625,353.315,302.625,353.315z"/>
					</g>
				</g>
				<path style="opacity:0.6;fill:#FFFFFF;" d="M297.001,350.618c0,0-13.045,3.598-10.825,6.676
					C288.396,360.371,297.001,350.618,297.001,350.618z"/>
			</g>
		</g>
		<g>
			<path style="fill:#407BFF;" d="M317.087,299.985c-6.79-1.42-13.493-3.549-19.99-5.952c-11.811-4.368-23.803-10.068-32.931-18.937
				c-4.904-4.765-8.79-10.589-10.3-17.323c-0.393-1.752,2.301-2.501,2.696-0.743c2.746,12.241,13.459,20.574,23.87,26.4
				c9.606,5.375,20.058,9.243,30.65,12.171c2.233,0.617,4.481,1.214,6.75,1.688C319.59,297.658,318.845,300.353,317.087,299.985
				L317.087,299.985z"/>
			<path style="opacity:0.3;" d="M317.087,299.985c-6.79-1.42-13.493-3.549-19.99-5.952c-11.811-4.368-23.803-10.068-32.931-18.937
				c-4.904-4.765-8.79-10.589-10.3-17.323c-0.393-1.752,2.301-2.501,2.696-0.743c2.746,12.241,13.459,20.574,23.87,26.4
				c9.606,5.375,20.058,9.243,30.65,12.171c2.233,0.617,4.481,1.214,6.75,1.688C319.59,297.658,318.845,300.353,317.087,299.985
				L317.087,299.985z"/>
		</g>
		<g>
			<path style="fill:#263238;" d="M290.763,287.444l14.345,8.265l0,0c1.076-1.867,0.434-4.252-1.432-5.327l-7.585-4.37
				C294.223,284.936,291.838,285.578,290.763,287.444L290.763,287.444z"/>
			<g>
				<polygon style="fill:#263238;" points="310.434,265.4 314.313,267.635 302.791,289.873 296.973,286.521 				"/>
				<path style="fill:#263238;" d="M288.797,296.469l22.313,12.882c2.36,1.363,5.378,0.554,6.74-1.806l0,0
					c1.362-2.36,0.554-5.378-1.806-6.74l-22.313-12.882c-2.36-1.362-5.378-0.554-6.74,1.806l0,0
					C285.629,292.089,286.437,295.107,288.797,296.469z"/>
				<path style="opacity:0.3;fill:#FFFFFF;" d="M288.797,296.469l22.313,12.882c2.36,1.363,5.378,0.554,6.74-1.806l0,0
					c1.362-2.36,0.554-5.378-1.806-6.74l-22.313-12.882c-2.36-1.362-5.378-0.554-6.74,1.806l0,0
					C285.629,292.089,286.437,295.107,288.797,296.469z"/>
				
					<ellipse transform="matrix(0.9657 -0.2597 0.2597 0.9657 -57.5491 90.645)" style="fill:#407BFF;" cx="314.316" cy="263.146" rx="5.94" ry="5.94"/>
				
					<ellipse transform="matrix(0.9657 -0.2597 0.2597 0.9657 -57.5491 90.645)" style="opacity:0.3;" cx="314.316" cy="263.146" rx="5.94" ry="5.94"/>
				<path style="fill:#FFFFFF;" d="M315.151,259.24c0.257,0.624-0.306,1.448-1.258,1.84c-0.952,0.392-1.932,0.203-2.189-0.421
					c-0.257-0.624,0.306-1.448,1.258-1.84S314.894,258.616,315.151,259.24z"/>
			</g>
			<path style="fill:#407BFF;" d="M340.87,245.189c0,0,28.774,18.127,19.257,39.337c-9.939,22.151-44.427,10.501-57.707,4.741
				c-4.706-2.041-14.352-5.636-5.966-19.632c8.386-13.995,21.431,3.398,21.431,3.398s20.633,8.005,9.649-9.318
				C327.535,263.717,329.378,252.132,340.87,245.189z"/>
			<path style="opacity:0.7;fill:#FFFFFF;" d="M340.87,245.189c0,0,28.774,18.127,19.257,39.337
				c-9.939,22.151-44.427,10.501-57.707,4.741c-4.706-2.041-14.352-5.636-5.966-19.632c8.386-13.995,21.431,3.398,21.431,3.398
				s20.633,8.005,9.649-9.318C327.535,263.717,329.378,252.132,340.87,245.189z"/>
			<g>
				<path style="fill:#FFFFFF;" d="M350.794,254.222c2.078,2.639,2.518,5.758,0.983,6.966c-1.535,1.208-4.464,0.049-6.541-2.59
					c-2.078-2.639-2.518-5.758-0.983-6.966C345.787,250.424,348.716,251.583,350.794,254.222z"/>
				<polygon style="fill:#407BFF;" points="349.837,258.18 349.089,260.55 347.561,257.907 345.149,257.012 346.65,255.317 
					345.72,252.575 348.059,254.283 349.707,253.663 350.028,256.052 352.094,258.3 				"/>
			</g>
			<path style="fill:#407BFF;" d="M330.522,297.178c10.861-7.176,3.51-18.378-0.632-23.329c0.826-0.78,1.14-2.074,0.58-4.113
				c16.268-8.592,26.236-3.579,30.836,0.336c1.179,4.506,1.092,9.392-1.179,14.454C354.87,296.243,342.745,298.502,330.522,297.178z
				"/>
			<path style="opacity:0.4;fill:#FFFFFF;" d="M330.522,297.178c10.861-7.176,3.51-18.378-0.632-23.329
				c0.826-0.78,1.14-2.074,0.58-4.113c16.268-8.592,26.236-3.579,30.836,0.336c1.179,4.506,1.092,9.392-1.179,14.454
				C354.87,296.243,342.745,298.502,330.522,297.178z"/>
			<g>
				<path style="fill:#407BFF;" d="M329.817,295.972c8.256-5.787,4.337-14.773-0.914-21.134c-1.137-1.377,0.83-3.366,1.977-1.977
					c2.979,3.609,5.72,7.774,6.497,12.474c0.915,5.534-1.697,9.931-6.148,13.05C329.751,299.42,328.353,296.998,329.817,295.972
					L329.817,295.972z"/>
			</g>
			<path style="fill:#407BFF;" d="M296.455,269.636c8.386-13.995,21.431,3.398,21.431,3.398s4.477,16.408-5.061,20.162l0,0
				c-4.093-1.33-7.692-2.752-10.405-3.929C297.715,287.226,288.069,283.631,296.455,269.636z"/>
			<path style="opacity:0.3;fill:#FFFFFF;" d="M296.455,269.636c8.386-13.995,21.431,3.398,21.431,3.398s4.477,16.408-5.061,20.162
				l0,0c-4.093-1.33-7.692-2.752-10.405-3.929C297.715,287.226,288.069,283.631,296.455,269.636z"/>
			<g>
				<path style="fill:#407BFF;" d="M326.188,263.345c1.339-8.038,7.269-15.157,13.977-19.362c1.529-0.958,2.933,1.459,1.411,2.414
					c-6.146,3.854-11.468,10.343-12.693,17.692C328.588,265.859,325.894,265.108,326.188,263.345L326.188,263.345z"/>
			</g>
		</g>
	</g>
</g>
<g id="Moon">
	<g>
		<path style="fill:#407BFF;" d="M230.663,161.848c-0.934-1.668-2.238-3.148-3.462-4.696c1.314-12.459-1.906-24.659-8.555-34.652
			c0.085-0.169,0.169-0.319,0.25-0.433c0.137-0.194,0.25-0.411,0.337-0.648c0.614-1.663,0-4.326-2.163-6.882
			c-0.463-0.548-0.945-1.002-1.43-1.411c-0.485-0.409-0.973-0.773-1.458-1.047c-0.969-0.548-1.913-0.83-2.746-0.86
			c-0.555-0.02-1.061,0.072-1.49,0.271c-0.001,0-0.001,0.001-0.002,0.001c-0.093,0.043-0.207,0.084-0.33,0.123
			c-0.021,0.007-0.043,0.013-0.065,0.02c-0.124,0.037-0.256,0.073-0.4,0.107c0,0-0.001,0-0.001,0
			c-5.677-4.885-12.484-8.637-20.175-10.783c-5.284-1.474-10.604-2.085-15.812-1.922c-1.529-1.254-3.007-2.574-4.673-3.484
			c-3.378-1.846-8.261-0.718-11.59,0.552c-3.497,1.334-7.667,3.652-9.051,7.4c-0.415,1.123-0.678,2.308-0.912,3.512
			c-0.439,0.274-0.868,0.563-1.299,0.85c-0.014,0.009-0.028,0.018-0.042,0.027c-0.653,0.436-1.296,0.886-1.93,1.35
			c-0.031,0.022-0.061,0.045-0.091,0.067c-0.616,0.454-1.222,0.921-1.819,1.401c-0.048,0.038-0.095,0.077-0.143,0.116
			c-0.577,0.468-1.144,0.948-1.702,1.441c-0.066,0.058-0.132,0.118-0.197,0.176c-0.535,0.478-1.062,0.966-1.578,1.467
			c-0.086,0.083-0.171,0.168-0.256,0.252c-0.492,0.483-0.976,0.975-1.45,1.479c-0.105,0.112-0.208,0.226-0.312,0.338
			c-0.448,0.485-0.89,0.977-1.321,1.48c-0.123,0.143-0.242,0.289-0.363,0.434c-0.405,0.483-0.804,0.971-1.192,1.469
			c-0.139,0.178-0.273,0.361-0.41,0.542c-0.361,0.477-0.719,0.956-1.064,1.447c-0.153,0.217-0.299,0.439-0.449,0.659
			c-0.319,0.467-0.636,0.935-0.941,1.414c-0.164,0.258-0.319,0.523-0.479,0.784c-0.278,0.454-0.556,0.907-0.82,1.371
			c-0.173,0.303-0.335,0.615-0.502,0.922c-0.237,0.436-0.477,0.87-0.703,1.315c-0.179,0.353-0.345,0.716-0.517,1.074
			c-0.198,0.413-0.401,0.822-0.589,1.242c-0.186,0.416-0.356,0.842-0.532,1.265c-0.157,0.376-0.321,0.747-0.469,1.128
			c-0.201,0.515-0.383,1.042-0.568,1.567c-0.107,0.302-0.223,0.598-0.324,0.902c-0.279,0.837-0.54,1.684-0.779,2.544
			c-1.039,3.726-1.638,7.469-1.851,11.179c-0.148,0.107-0.287,0.2-0.421,0.285c-0.03,0.019-0.059,0.037-0.088,0.055
			c-0.133,0.081-0.26,0.152-0.372,0.202c-2.015,0.892-3.412,4.38-2.72,9.057c0.087,0.585,0.199,1.142,0.334,1.669
			c0.404,1.583,1.009,2.902,1.72,3.913c0.947,1.348,2.08,2.149,3.171,2.301c0.106,0.015,0.225,0.042,0.352,0.075l0,0
			c4.886,16.888,18.107,30.94,36.247,36.079c0.071,0.02,0.139,0.045,0.21,0.064c0.001,0,0.001,0,0.001,0
			c0.778,0.217,1.558,0.409,2.337,0.589c0.185,0.043,0.369,0.085,0.554,0.125c0.768,0.169,1.536,0.324,2.304,0.458
			c0.092,0.016,0.184,0.028,0.276,0.044c0.695,0.117,1.39,0.217,2.084,0.306c0.19,0.024,0.38,0.049,0.57,0.071
			c0.749,0.087,1.498,0.16,2.246,0.215c0.161,0.012,0.321,0.018,0.482,0.029c0.629,0.04,1.258,0.068,1.885,0.085
			c0.058,0.002,0.116,0.006,0.174,0.008c0.01,0.03,0.024,0.064,0.032,0.093c0.395,1.366,1.996,2.585,4.385,3.064
			c0.796,0.16,1.68,0.237,2.637,0.21c3.346-0.094,5.721-1.418,6.563-2.981c0.12-0.223,0.209-0.451,0.265-0.681
			c0.021-0.086,0.051-0.181,0.089-0.282c0.009-0.024,0.021-0.051,0.03-0.076c0.032-0.082,0.066-0.166,0.106-0.255
			c0.01-0.023,0.022-0.048,0.033-0.072c0.045-0.099,0.094-0.2,0.147-0.305c0.007-0.014,0.014-0.027,0.021-0.041
			c0.062-0.121,0.127-0.245,0.196-0.371c0.085-0.022,0.17-0.045,0.255-0.068c0.473-0.126,0.942-0.259,1.411-0.398
			c0.383-0.114,0.764-0.229,1.144-0.351c0.357-0.115,0.713-0.233,1.067-0.355c0.332-0.115,0.661-0.236,0.99-0.357
			c0.588-0.216,1.172-0.443,1.752-0.68c0.263-0.108,0.527-0.216,0.788-0.328c0.391-0.167,0.781-0.337,1.167-0.513
			c0.188-0.086,0.373-0.177,0.56-0.265c0.715-0.337,1.422-0.688,2.12-1.056c0.185-0.097,0.369-0.195,0.552-0.294
			c1.295-0.702,2.56-1.458,3.794-2.266c0.128-0.084,0.256-0.169,0.384-0.254c1.257-0.839,2.479-1.732,3.661-2.678
			c0.093-0.074,0.185-0.15,0.277-0.224c3.004-2.435,5.757-5.201,8.183-8.277c2.399-0.522,4.902-0.734,7.111-1.576
			c3.597-1.371,5.909-5.817,7.104-9.174C231.672,170.01,232.616,165.334,230.663,161.848z"/>
		<path style="opacity:0.7;fill:#FFFFFF;" d="M230.663,161.848c-0.934-1.668-2.238-3.148-3.462-4.696
			c1.314-12.459-1.906-24.659-8.555-34.652c0.085-0.169,0.169-0.319,0.25-0.433c0.137-0.194,0.25-0.411,0.337-0.648
			c0.614-1.663,0-4.326-2.163-6.882c-0.463-0.548-0.945-1.002-1.43-1.411c-0.485-0.409-0.973-0.773-1.458-1.047
			c-0.969-0.548-1.913-0.83-2.746-0.86c-0.555-0.02-1.061,0.072-1.49,0.271c-0.001,0-0.001,0.001-0.002,0.001
			c-0.093,0.043-0.207,0.084-0.33,0.123c-0.021,0.007-0.043,0.013-0.065,0.02c-0.124,0.037-0.256,0.073-0.4,0.107
			c0,0-0.001,0-0.001,0c-5.677-4.885-12.484-8.637-20.175-10.783c-5.284-1.474-10.604-2.085-15.812-1.922
			c-1.529-1.254-3.007-2.574-4.673-3.484c-3.378-1.846-8.261-0.718-11.59,0.552c-3.497,1.334-7.667,3.652-9.051,7.4
			c-0.415,1.123-0.678,2.308-0.912,3.512c-0.439,0.274-0.868,0.563-1.299,0.85c-0.014,0.009-0.028,0.018-0.042,0.027
			c-0.653,0.436-1.296,0.886-1.93,1.35c-0.031,0.022-0.061,0.045-0.091,0.067c-0.616,0.454-1.222,0.921-1.819,1.401
			c-0.048,0.038-0.095,0.077-0.143,0.116c-0.577,0.468-1.144,0.948-1.702,1.441c-0.066,0.058-0.132,0.118-0.197,0.176
			c-0.535,0.478-1.062,0.966-1.578,1.467c-0.086,0.083-0.171,0.168-0.256,0.252c-0.492,0.483-0.976,0.975-1.45,1.479
			c-0.105,0.112-0.208,0.226-0.312,0.338c-0.448,0.485-0.89,0.977-1.321,1.48c-0.123,0.143-0.242,0.289-0.363,0.434
			c-0.405,0.483-0.804,0.971-1.192,1.469c-0.139,0.178-0.273,0.361-0.41,0.542c-0.361,0.477-0.719,0.956-1.064,1.447
			c-0.153,0.217-0.299,0.439-0.449,0.659c-0.319,0.467-0.636,0.935-0.941,1.414c-0.164,0.258-0.319,0.523-0.479,0.784
			c-0.278,0.454-0.556,0.907-0.82,1.371c-0.173,0.303-0.335,0.615-0.502,0.922c-0.237,0.436-0.477,0.87-0.703,1.315
			c-0.179,0.353-0.345,0.716-0.517,1.074c-0.198,0.413-0.401,0.822-0.589,1.242c-0.186,0.416-0.356,0.842-0.532,1.265
			c-0.157,0.376-0.321,0.747-0.469,1.128c-0.201,0.515-0.383,1.042-0.568,1.567c-0.107,0.302-0.223,0.598-0.324,0.902
			c-0.279,0.837-0.54,1.684-0.779,2.544c-1.039,3.726-1.638,7.469-1.851,11.179c-0.148,0.107-0.287,0.2-0.421,0.285
			c-0.03,0.019-0.059,0.037-0.088,0.055c-0.133,0.081-0.26,0.152-0.372,0.202c-2.015,0.892-3.412,4.38-2.72,9.057
			c0.087,0.585,0.199,1.142,0.334,1.669c0.404,1.583,1.009,2.902,1.72,3.913c0.947,1.348,2.08,2.149,3.171,2.301
			c0.106,0.015,0.225,0.042,0.352,0.075l0,0c4.886,16.888,18.107,30.94,36.247,36.079c0.071,0.02,0.139,0.045,0.21,0.064
			c0.001,0,0.001,0,0.001,0c0.778,0.217,1.558,0.409,2.337,0.589c0.185,0.043,0.369,0.085,0.554,0.125
			c0.768,0.169,1.536,0.324,2.304,0.458c0.092,0.016,0.184,0.028,0.276,0.044c0.695,0.117,1.39,0.217,2.084,0.306
			c0.19,0.024,0.38,0.049,0.57,0.071c0.749,0.087,1.498,0.16,2.246,0.215c0.161,0.012,0.321,0.018,0.482,0.029
			c0.629,0.04,1.258,0.068,1.885,0.085c0.058,0.002,0.116,0.006,0.174,0.008c0.01,0.03,0.024,0.064,0.032,0.093
			c0.395,1.366,1.996,2.585,4.385,3.064c0.796,0.16,1.68,0.237,2.637,0.21c3.346-0.094,5.721-1.418,6.563-2.981
			c0.12-0.223,0.209-0.451,0.265-0.681c0.021-0.086,0.051-0.181,0.089-0.282c0.009-0.024,0.021-0.051,0.03-0.076
			c0.032-0.082,0.066-0.166,0.106-0.255c0.01-0.023,0.022-0.048,0.033-0.072c0.045-0.099,0.094-0.2,0.147-0.305
			c0.007-0.014,0.014-0.027,0.021-0.041c0.062-0.121,0.127-0.245,0.196-0.371c0.085-0.022,0.17-0.045,0.255-0.068
			c0.473-0.126,0.942-0.259,1.411-0.398c0.383-0.114,0.764-0.229,1.144-0.351c0.357-0.115,0.713-0.233,1.067-0.355
			c0.332-0.115,0.661-0.236,0.99-0.357c0.588-0.216,1.172-0.443,1.752-0.68c0.263-0.108,0.527-0.216,0.788-0.328
			c0.391-0.167,0.781-0.337,1.167-0.513c0.188-0.086,0.373-0.177,0.56-0.265c0.715-0.337,1.422-0.688,2.12-1.056
			c0.185-0.097,0.369-0.195,0.552-0.294c1.295-0.702,2.56-1.458,3.794-2.266c0.128-0.084,0.256-0.169,0.384-0.254
			c1.257-0.839,2.479-1.732,3.661-2.678c0.093-0.074,0.185-0.15,0.277-0.224c3.004-2.435,5.757-5.201,8.183-8.277
			c2.399-0.522,4.902-0.734,7.111-1.576c3.597-1.371,5.909-5.817,7.104-9.174C231.672,170.01,232.616,165.334,230.663,161.848z"/>
		<path style="opacity:0.2;fill:#407BFF;" d="M169.042,196.188c-28.018-7.814-44.396-36.862-36.582-64.879
			c2.754-9.876,8.155-18.296,15.21-24.73c-0.686,0.413-1.362,0.842-2.029,1.285c-0.001,0.001-0.002,0.002-0.003,0.002
			c-0.014,0.009-0.028,0.018-0.042,0.027c-0.653,0.436-1.296,0.886-1.93,1.35c-0.031,0.022-0.061,0.045-0.091,0.067
			c-0.112,0.083-0.22,0.172-0.332,0.255c-0.501,0.375-1.001,0.754-1.489,1.147c-0.047,0.037-0.093,0.075-0.139,0.113
			c-0.285,0.231-0.561,0.475-0.842,0.713c-0.287,0.243-0.58,0.48-0.862,0.73c-0.066,0.058-0.132,0.118-0.197,0.176
			c-0.477,0.426-0.944,0.863-1.405,1.306c-0.057,0.055-0.116,0.106-0.173,0.161c-0.086,0.083-0.171,0.168-0.256,0.252
			c-0.364,0.358-0.718,0.726-1.073,1.094c-0.124,0.13-0.254,0.254-0.377,0.385c-0.105,0.111-0.207,0.225-0.311,0.337
			c-0.427,0.461-0.845,0.93-1.256,1.408c-0.021,0.025-0.044,0.048-0.065,0.073c-0.123,0.143-0.242,0.289-0.363,0.434
			c-0.288,0.344-0.569,0.696-0.85,1.047c-0.113,0.142-0.231,0.28-0.343,0.423c-0.138,0.178-0.272,0.36-0.408,0.539
			c-0.096,0.127-0.188,0.257-0.283,0.384c-0.264,0.352-0.529,0.703-0.783,1.064c-0.153,0.217-0.299,0.439-0.449,0.659
			c-0.111,0.163-0.217,0.329-0.328,0.493c-0.205,0.308-0.415,0.611-0.615,0.924c-0.164,0.257-0.318,0.521-0.477,0.781
			c-0.148,0.242-0.291,0.488-0.438,0.731c-0.127,0.215-0.26,0.425-0.384,0.642c-0.172,0.303-0.334,0.613-0.501,0.92
			c-0.237,0.436-0.477,0.87-0.703,1.315c-0.179,0.353-0.345,0.716-0.517,1.074c-0.198,0.413-0.401,0.822-0.589,1.242
			c-0.186,0.416-0.356,0.842-0.532,1.265c-0.157,0.376-0.321,0.747-0.469,1.128c-0.201,0.515-0.383,1.042-0.568,1.567
			c-0.107,0.302-0.223,0.598-0.324,0.902c-0.279,0.837-0.54,1.684-0.779,2.544c-0.256,0.917-0.484,1.835-0.687,2.753
			c-0.029,0.128-0.049,0.257-0.076,0.385c-0.173,0.809-0.333,1.618-0.466,2.427c-0.009,0.058-0.016,0.116-0.025,0.173
			c-0.293,1.817-0.492,3.632-0.596,5.44c0,0,0,0.001,0,0.001c-0.148,0.107-0.287,0.2-0.421,0.285
			c-0.03,0.019-0.059,0.037-0.088,0.055c-0.133,0.081-0.26,0.152-0.372,0.202c-2.015,0.892-3.412,4.38-2.72,9.057
			c0.087,0.585,0.199,1.142,0.334,1.669c0.404,1.583,1.009,2.902,1.72,3.913c0.947,1.348,2.08,2.149,3.171,2.301
			c0.106,0.015,0.225,0.042,0.352,0.075l0,0c0,0,0,0,0,0c0.286,0.988,0.606,1.964,0.948,2.931c0.05,0.143,0.102,0.285,0.154,0.427
			c0.326,0.898,0.675,1.788,1.049,2.666c0.033,0.078,0.064,0.157,0.098,0.235c0.835,1.935,1.788,3.817,2.846,5.637
			c0.072,0.123,0.146,0.245,0.219,0.368c0.465,0.785,0.951,1.558,1.456,2.318c0.084,0.126,0.166,0.253,0.251,0.378
			c1.173,1.733,2.449,3.399,3.824,4.985c0.078,0.09,0.16,0.177,0.238,0.267c0.602,0.685,1.223,1.354,1.861,2.008
			c0.135,0.138,0.27,0.276,0.406,0.413c0.673,0.675,1.363,1.335,2.074,1.974c0.056,0.05,0.109,0.102,0.165,0.152
			c0.804,0.716,1.63,1.409,2.48,2.078c0.038,0.03,0.078,0.058,0.117,0.088c0.77,0.602,1.561,1.18,2.368,1.74
			c0.175,0.122,0.352,0.241,0.529,0.36c0.731,0.495,1.476,0.972,2.236,1.432c0.149,0.09,0.296,0.184,0.446,0.273
			c1.825,1.08,3.731,2.055,5.71,2.919c0.19,0.083,0.383,0.161,0.574,0.242c0.813,0.344,1.639,0.668,2.477,0.973
			c0.214,0.078,0.426,0.157,0.642,0.233c1.01,0.354,2.033,0.686,3.076,0.982c0.072,0.02,0.141,0.045,0.212,0.065
			c0.001,0,0.003,0.001,0.004,0.001c0.777,0.217,1.555,0.408,2.333,0.588c0.185,0.043,0.37,0.085,0.555,0.126
			c0.768,0.169,1.536,0.324,2.304,0.458c0.092,0.016,0.184,0.028,0.276,0.044c0.695,0.117,1.39,0.217,2.084,0.306
			c0.051,0.006,0.102,0.013,0.153,0.019c0.139,0.018,0.278,0.036,0.418,0.052c0.749,0.087,1.498,0.16,2.246,0.215
			c0.151,0.011,0.3,0.017,0.451,0.027c0.011,0.001,0.021,0.001,0.032,0.002c0.629,0.04,1.257,0.068,1.884,0.085
			c0.001,0,0.001,0,0.001,0c0.058,0.002,0.116,0.006,0.174,0.008c0.01,0.03,0.024,0.064,0.032,0.093
			c0.395,1.366,1.996,2.585,4.385,3.064c0.796,0.16,1.68,0.237,2.637,0.21c3.346-0.094,5.721-1.418,6.563-2.981
			c0.12-0.223,0.209-0.451,0.265-0.681c0.021-0.086,0.051-0.181,0.089-0.282c0.009-0.024,0.021-0.051,0.03-0.076
			c0.032-0.082,0.066-0.166,0.106-0.255c0.01-0.023,0.022-0.048,0.033-0.072c0.045-0.099,0.094-0.2,0.147-0.305
			c0.007-0.014,0.014-0.027,0.021-0.041c0.062-0.121,0.127-0.245,0.196-0.371c0.022-0.006,0.044-0.012,0.066-0.018
			c0.063-0.017,0.126-0.033,0.189-0.05c0.473-0.126,0.942-0.259,1.411-0.398c0.382-0.114,0.763-0.229,1.142-0.351
			c0.234-0.075,0.466-0.154,0.699-0.233c0.123-0.041,0.247-0.081,0.369-0.123c0.332-0.115,0.661-0.236,0.99-0.357
			c0.587-0.216,1.17-0.442,1.749-0.679c0.003-0.001,0.006-0.002,0.008-0.003c0.262-0.107,0.524-0.215,0.784-0.326
			c0.219-0.093,0.435-0.191,0.652-0.287c0.172-0.076,0.345-0.149,0.516-0.227c0.187-0.086,0.372-0.176,0.558-0.264
			c0.001,0,0.001,0,0.001-0.001c0.715-0.336,1.421-0.688,2.12-1.056c0.184-0.097,0.366-0.194,0.549-0.292
			c0.003-0.002,0.006-0.003,0.009-0.005c0.601-0.326,1.194-0.666,1.782-1.014c0.086-0.051,0.173-0.103,0.259-0.154
			c0.587-0.353,1.17-0.715,1.743-1.091c0.002-0.001,0.005-0.003,0.007-0.005c0.128-0.083,0.254-0.168,0.381-0.252
			c0,0,0.001,0,0.001-0.001c0.578-0.386,1.146-0.786,1.709-1.194c0.095-0.069,0.19-0.138,0.284-0.207
			c0.563-0.415,1.121-0.838,1.668-1.275c0.092-0.073,0.182-0.147,0.273-0.221c0.003-0.002,0.005-0.004,0.008-0.006
			c0.73-0.592,1.445-1.206,2.145-1.837c0.026-0.023,0.052-0.046,0.078-0.069c0.028-0.025,0.054-0.053,0.081-0.078
			C198.352,197.776,183.562,200.237,169.042,196.188z"/>
		<g>
			<path style="fill:#407BFF;" d="M199.167,123.697c-0.846-1.997-1.581-4.025-2.17-6.112c-1.404-4.979-4.438-7.227-9.556-8.653
				c-4.762-1.327-8.736-1.183-12.348,2.124c-1.756,1.608-3.629,3.038-5.608,4.363c-0.803,0.538-1.535-0.772-0.737-1.306
				c2.692-1.802,4.808-4.576,7.485-6.208c3.334-2.033,8.063-1.397,11.611-0.417c3.396,0.938,7.621,2.764,9.515,5.961
				c1.629,2.75,1.841,6.505,3.115,9.512C200.847,123.841,199.544,124.586,199.167,123.697L199.167,123.697z M219.538,154.647
				c-0.633,0.724,0.409,1.803,1.044,1.077c1.308-1.495,3.169-2.582,4.334-4.131c1.471-1.955,1.347-5.046,0.919-7.311
				c-0.42-2.222-1.355-5.007-3.357-6.333c-1.652-1.094-3.761-1.512-5.518-2.537c-0.836-0.487-1.606,0.8-0.773,1.286
				c1.056,0.615,2.138,1.214,3.27,1.676c2.688,1.098,3.859,2.169,4.681,5.174c0.913,3.339,0.719,5.893-1.733,8.223
				C221.419,152.71,220.438,153.617,219.538,154.647L219.538,154.647z M180.073,189.807c-0.888-0.376-1.279,1.073-0.403,1.445
				c3.432,1.455,6.468,3.924,9.839,5.288c4.074,1.649,8.917-0.214,12.255-2.613c3.336-2.398,6.629-6.406,6.361-10.79
				c-0.227-3.717-1.448-7.376-1.606-11.188c-0.04-0.962-1.541-0.971-1.5-0.005c0.1,2.413,0.219,4.889,0.68,7.265
				c0.387,1.994,1.197,3.836,0.751,5.93c-0.676,3.166-3.081,5.713-5.621,7.536c-2.692,1.932-6.475,3.645-9.889,2.748
				c-1.807-0.475-3.225-1.847-4.824-2.756C184.183,191.568,182.118,190.674,180.073,189.807L180.073,189.807z M141.148,159.079
				c0.327-0.91-1.121-1.306-1.445-0.403c-2.015,5.612-6.21,10.152-1.923,15.89c2.134,2.857,5.863,5.037,9.503,4.053
				c2.784-0.753,5.39-2.049,8.254-2.702c0.942-0.215,0.56-1.666-0.381-1.451c-1.924,0.439-3.832,0.956-5.693,1.616
				c-1.259,0.446-2.501,1.226-3.87,1.281c-2.914,0.118-5.845-2.232-7.241-4.623C135.658,168.128,139.565,163.487,141.148,159.079
				L141.148,159.079z M156.322,115.081c0.955-0.127,0.565-1.576-0.381-1.451c-3.608,0.478-7.518-0.357-10.982,0.406
				c-4.34,0.956-7.729,5.194-9.898,8.781c-2.257,3.734-4.539,9.164-2.876,13.559c1.221,3.227,3.268,6.113,4.388,9.497
				c0.302,0.913,1.755,0.538,1.451-0.381c-0.824-2.488-1.745-4.97-2.984-7.283c-2.714-5.065-1.674-9.656,1.307-14.619
				c2.809-4.677,6.369-8.167,11.946-8.006C150.986,115.662,153.652,115.435,156.322,115.081L156.322,115.081z"/>
			<path style="opacity:0.4;fill:#FFFFFF;" d="M199.167,123.697c-0.846-1.997-1.581-4.025-2.17-6.112
				c-1.404-4.979-4.438-7.227-9.556-8.653c-4.762-1.327-8.736-1.183-12.348,2.124c-1.756,1.608-3.629,3.038-5.608,4.363
				c-0.803,0.538-1.535-0.772-0.737-1.306c2.692-1.802,4.808-4.576,7.485-6.208c3.334-2.033,8.063-1.397,11.611-0.417
				c3.396,0.938,7.621,2.764,9.515,5.961c1.629,2.75,1.841,6.505,3.115,9.512C200.847,123.841,199.544,124.586,199.167,123.697
				L199.167,123.697z M219.538,154.647c-0.633,0.724,0.409,1.803,1.044,1.077c1.308-1.495,3.169-2.582,4.334-4.131
				c1.471-1.955,1.347-5.046,0.919-7.311c-0.42-2.222-1.355-5.007-3.357-6.333c-1.652-1.094-3.761-1.512-5.518-2.537
				c-0.836-0.487-1.606,0.8-0.773,1.286c1.056,0.615,2.138,1.214,3.27,1.676c2.688,1.098,3.859,2.169,4.681,5.174
				c0.913,3.339,0.719,5.893-1.733,8.223C221.419,152.71,220.438,153.617,219.538,154.647L219.538,154.647z M180.073,189.807
				c-0.888-0.376-1.279,1.073-0.403,1.445c3.432,1.455,6.468,3.924,9.839,5.288c4.074,1.649,8.917-0.214,12.255-2.613
				c3.336-2.398,6.629-6.406,6.361-10.79c-0.227-3.717-1.448-7.376-1.606-11.188c-0.04-0.962-1.541-0.971-1.5-0.005
				c0.1,2.413,0.219,4.889,0.68,7.265c0.387,1.994,1.197,3.836,0.751,5.93c-0.676,3.166-3.081,5.713-5.621,7.536
				c-2.692,1.932-6.475,3.645-9.889,2.748c-1.807-0.475-3.225-1.847-4.824-2.756C184.183,191.568,182.118,190.674,180.073,189.807
				L180.073,189.807z M141.148,159.079c0.327-0.91-1.121-1.306-1.445-0.403c-2.015,5.612-6.21,10.152-1.923,15.89
				c2.134,2.857,5.863,5.037,9.503,4.053c2.784-0.753,5.39-2.049,8.254-2.702c0.942-0.215,0.56-1.666-0.381-1.451
				c-1.924,0.439-3.832,0.956-5.693,1.616c-1.259,0.446-2.501,1.226-3.87,1.281c-2.914,0.118-5.845-2.232-7.241-4.623
				C135.658,168.128,139.565,163.487,141.148,159.079L141.148,159.079z M156.322,115.081c0.955-0.127,0.565-1.576-0.381-1.451
				c-3.608,0.478-7.518-0.357-10.982,0.406c-4.34,0.956-7.729,5.194-9.898,8.781c-2.257,3.734-4.539,9.164-2.876,13.559
				c1.221,3.227,3.268,6.113,4.388,9.497c0.302,0.913,1.755,0.538,1.451-0.381c-0.824-2.488-1.745-4.97-2.984-7.283
				c-2.714-5.065-1.674-9.656,1.307-14.619c2.809-4.677,6.369-8.167,11.946-8.006C150.986,115.662,153.652,115.435,156.322,115.081
				L156.322,115.081z"/>
			<path style="fill:#407BFF;" d="M187.19,109.834c4.647,1.296,8.046,3.668,7.592,5.298c-0.454,1.63-4.59,1.9-9.238,0.604
				c-4.647-1.296-8.046-3.668-7.592-5.297C178.407,108.808,182.542,108.538,187.19,109.834z M221.304,139.749
				c-1.015,0.185-1.411,2.682-0.883,5.578c0.528,2.896,1.778,5.093,2.794,4.908c1.015-0.185,1.411-2.682,0.883-5.578
				C223.57,141.762,222.319,139.564,221.304,139.749z M204.792,183.188c-1.291-1.799-5.515-0.977-9.435,1.835
				c-3.92,2.813-6.051,6.552-4.76,8.351c1.291,1.799,5.515,0.978,9.435-1.835C203.952,188.725,206.083,184.987,204.792,183.188z
				 M146.84,176.065c1.31-1.198,0.542-4.172-1.717-6.641c-2.259-2.469-5.151-3.5-6.462-2.301c-1.31,1.198-0.541,4.172,1.717,6.641
				C142.637,176.233,145.53,177.264,146.84,176.065z M135.21,134.596c1.663,1,5.321-2.034,8.172-6.776
				c2.851-4.742,3.814-9.396,2.151-10.396c-1.663-0.999-5.321,2.034-8.172,6.776C134.51,128.942,133.547,133.596,135.21,134.596z"/>
			<path style="opacity:0.2;fill:#FFFFFF;" d="M187.19,109.834c4.647,1.296,8.046,3.668,7.592,5.298
				c-0.454,1.63-4.59,1.9-9.238,0.604c-4.647-1.296-8.046-3.668-7.592-5.297C178.407,108.808,182.542,108.538,187.19,109.834z
				 M221.304,139.749c-1.015,0.185-1.411,2.682-0.883,5.578c0.528,2.896,1.778,5.093,2.794,4.908
				c1.015-0.185,1.411-2.682,0.883-5.578C223.57,141.762,222.319,139.564,221.304,139.749z M204.792,183.188
				c-1.291-1.799-5.515-0.977-9.435,1.835c-3.92,2.813-6.051,6.552-4.76,8.351c1.291,1.799,5.515,0.978,9.435-1.835
				C203.952,188.725,206.083,184.987,204.792,183.188z M146.84,176.065c1.31-1.198,0.542-4.172-1.717-6.641
				c-2.259-2.469-5.151-3.5-6.462-2.301c-1.31,1.198-0.541,4.172,1.717,6.641C142.637,176.233,145.53,177.264,146.84,176.065z
				 M135.21,134.596c1.663,1,5.321-2.034,8.172-6.776c2.851-4.742,3.814-9.396,2.151-10.396c-1.663-0.999-5.321,2.034-8.172,6.776
				C134.51,128.942,133.547,133.596,135.21,134.596z"/>
			<g>
				<path style="fill:#407BFF;" d="M150.575,103.949c0.595,1.584,4.739,1.492,9.255-0.205c4.517-1.697,7.695-4.356,7.101-5.94
					c-0.595-1.584-4.739-1.492-9.255,0.205C153.16,99.706,149.98,102.365,150.575,103.949z"/>
				<path style="opacity:0.3;fill:#FFFFFF;" d="M150.575,103.949c0.595,1.584,4.739,1.492,9.255-0.205
					c4.517-1.697,7.695-4.356,7.101-5.94c-0.595-1.584-4.739-1.492-9.255,0.205C153.16,99.706,149.98,102.365,150.575,103.949z"/>
				<path style="fill:#407BFF;" d="M175.644,101.769c-1.699-1.016-3.339-2.109-4.914-3.306c-1.894-1.44-3.074-2.782-5.672-3.03
					c-3.119-0.297-6.564,0.688-9.367,1.978c-4.184,1.925-6.539,4.211-7.437,8.698c-0.455,2.274-1.101,4.469-1.895,6.649
					c-0.164,0.451-0.888,0.253-0.723-0.201c1.075-2.95,1.158-6.201,2.211-9.052c1.384-3.748,5.554-6.066,9.051-7.4
					c3.329-1.27,8.212-2.398,11.59-0.552c2.668,1.458,4.855,3.967,7.542,5.574C176.444,101.373,176.059,102.017,175.644,101.769
					L175.644,101.769z"/>
				<path style="opacity:0.4;fill:#FFFFFF;" d="M175.644,101.769c-1.699-1.016-3.339-2.109-4.914-3.306
					c-1.894-1.44-3.074-2.782-5.672-3.03c-3.119-0.297-6.564,0.688-9.367,1.978c-4.184,1.925-6.539,4.211-7.437,8.698
					c-0.455,2.274-1.101,4.469-1.895,6.649c-0.164,0.451-0.888,0.253-0.723-0.201c1.075-2.95,1.158-6.201,2.211-9.052
					c1.384-3.748,5.554-6.066,9.051-7.4c3.329-1.27,8.212-2.398,11.59-0.552c2.668,1.458,4.855,3.967,7.542,5.574
					C176.444,101.373,176.059,102.017,175.644,101.769L175.644,101.769z"/>
			</g>
			<g>
				<path style="fill:#407BFF;" d="M228.555,163.634c-1.591-0.576-4.211,2.636-5.852,7.173c-1.641,4.537-1.682,8.682-0.091,9.257
					s4.211-2.636,5.852-7.173C230.105,168.354,230.145,164.209,228.555,163.634z"/>
				<path style="opacity:0.2;fill:#FFFFFF;" d="M228.555,163.634c-1.591-0.576-4.211,2.636-5.852,7.173
					c-1.641,4.537-1.682,8.682-0.091,9.257s4.211-2.636,5.852-7.173C230.105,168.354,230.145,164.209,228.555,163.634z"/>
				<path style="fill:#407BFF;" d="M213.939,184.117c1.875-0.633,3.771-1.171,5.705-1.591c2.325-0.506,4.112-0.532,5.986-2.347
					c2.251-2.18,3.738-5.44,4.576-8.409c1.252-4.432,1.042-7.707-1.789-11.303c-1.435-1.823-2.684-3.738-3.827-5.758
					c-0.236-0.417,0.384-0.84,0.622-0.419c1.546,2.733,3.965,4.906,5.45,7.558c1.952,3.486,1.009,8.162-0.247,11.689
					c-1.195,3.357-3.507,7.803-7.104,9.174c-2.841,1.083-6.17,1.117-9.135,2.118C213.721,184.983,213.481,184.272,213.939,184.117
					L213.939,184.117z"/>
				<path style="opacity:0.3;fill:#FFFFFF;" d="M213.939,184.117c1.875-0.633,3.771-1.171,5.705-1.591
					c2.325-0.506,4.112-0.532,5.986-2.347c2.251-2.18,3.738-5.44,4.576-8.409c1.252-4.432,1.042-7.707-1.789-11.303
					c-1.435-1.823-2.684-3.738-3.827-5.758c-0.236-0.417,0.384-0.84,0.622-0.419c1.546,2.733,3.965,4.906,5.45,7.558
					c1.952,3.486,1.009,8.162-0.247,11.689c-1.195,3.357-3.507,7.803-7.104,9.174c-2.841,1.083-6.17,1.117-9.135,2.118
					C213.721,184.983,213.481,184.272,213.939,184.117L213.939,184.117z"/>
			</g>
		</g>
		<path style="fill:#407BFF;" d="M177.473,157.76c1.351-0.063,2.786-0.263,4.302-0.637c0.409-0.101,0.682-0.557,0.608-1.018
			c-0.073-0.458-0.454-0.75-0.876-0.65c-11.078,2.746-17.656-4.685-17.722-4.76c-0.285-0.333-0.763-0.327-1.065,0.009
			c-0.304,0.336-0.319,0.878-0.034,1.207C162.94,152.203,168.232,158.19,177.473,157.76z"/>
		<circle style="fill:#407BFF;" cx="167.003" cy="144.258" r="4.52"/>
		<circle style="fill:#407BFF;" cx="193.174" cy="144.258" r="4.52"/>
	</g>
</g>
</svg>
